<svg width="166" height="16" viewBox="0 0 166 16" fill="none" xmlns="http://www.w3.org/2000/svg">
<path d="M0.88 15V0.999999H7C8.52 0.999999 9.85333 1.29333 11 1.88C12.1467 2.46667 13.04 3.28 13.68 4.32C14.32 5.36 14.64 6.58667 14.64 8C14.64 9.4 14.32 10.6267 13.68 11.68C13.04 12.72 12.1467 13.5333 11 14.12C9.85333 14.7067 8.52 15 7 15H0.88ZM3.48 12.8H6.88C7.93333 12.8 8.84 12.6 9.6 12.2C10.3733 11.8 10.9667 11.24 11.38 10.52C11.8067 9.8 12.02 8.96 12.02 8C12.02 7.02667 11.8067 6.18667 11.38 5.48C10.9667 4.76 10.3733 4.2 9.6 3.8C8.84 3.4 7.93333 3.2 6.88 3.2H3.48V12.8ZM23.7434 15V12.84L23.6034 12.38V8.6C23.6034 7.86667 23.3834 7.3 22.9434 6.9C22.5034 6.48667 21.8368 6.28 20.9434 6.28C20.3434 6.28 19.7501 6.37333 19.1634 6.56C18.5901 6.74667 18.1034 7.00667 17.7034 7.34L16.7234 5.52C17.2968 5.08 17.9768 4.75333 18.7634 4.54C19.5634 4.31333 20.3901 4.2 21.2434 4.2C22.7901 4.2 23.9834 4.57333 24.8234 5.32C25.6768 6.05333 26.1034 7.19333 26.1034 8.74V15H23.7434ZM20.3834 15.14C19.5834 15.14 18.8834 15.0067 18.2834 14.74C17.6834 14.46 17.2168 14.08 16.8834 13.6C16.5634 13.1067 16.4034 12.5533 16.4034 11.94C16.4034 11.34 16.5434 10.8 16.8234 10.32C17.1168 9.84 17.5901 9.46 18.2434 9.18C18.8968 8.9 19.7634 8.76 20.8434 8.76H23.9434V10.42H21.0234C20.1701 10.42 19.5968 10.56 19.3034 10.84C19.0101 11.1067 18.8634 11.44 18.8634 11.84C18.8634 12.2933 19.0434 12.6533 19.4034 12.92C19.7634 13.1867 20.2634 13.32 20.9034 13.32C21.5168 13.32 22.0634 13.18 22.5434 12.9C23.0368 12.62 23.3901 12.2067 23.6034 11.66L24.0234 13.16C23.7834 13.7867 23.3501 14.2733 22.7234 14.62C22.1101 14.9667 21.3301 15.14 20.3834 15.14ZM33.3319 15.14C32.1585 15.14 31.2519 14.84 30.6119 14.24C29.9719 13.6267 29.6519 12.7267 29.6519 11.54V1.96H32.1519V11.48C32.1519 11.9867 32.2785 12.38 32.5319 12.66C32.7985 12.94 33.1652 13.08 33.6319 13.08C34.1919 13.08 34.6585 12.9333 35.0319 12.64L35.7319 14.42C35.4385 14.66 35.0785 14.84 34.6519 14.96C34.2252 15.08 33.7852 15.14 33.3319 15.14ZM27.8919 6.4V4.4H35.0119V6.4H27.8919ZM44.3684 15V12.84L44.2284 12.38V8.6C44.2284 7.86667 44.0084 7.3 43.5684 6.9C43.1284 6.48667 42.4618 6.28 41.5684 6.28C40.9684 6.28 40.3751 6.37333 39.7884 6.56C39.2151 6.74667 38.7284 7.00667 38.3284 7.34L37.3484 5.52C37.9218 5.08 38.6018 4.75333 39.3884 4.54C40.1884 4.31333 41.0151 4.2 41.8684 4.2C43.4151 4.2 44.6084 4.57333 45.4484 5.32C46.3018 6.05333 46.7284 7.19333 46.7284 8.74V15H44.3684ZM41.0084 15.14C40.2084 15.14 39.5084 15.0067 38.9084 14.74C38.3084 14.46 37.8418 14.08 37.5084 13.6C37.1884 13.1067 37.0284 12.5533 37.0284 11.94C37.0284 11.34 37.1684 10.8 37.4484 10.32C37.7418 9.84 38.2151 9.46 38.8684 9.18C39.5218 8.9 40.3884 8.76 41.4684 8.76H44.5684V10.42H41.6484C40.7951 10.42 40.2218 10.56 39.9284 10.84C39.6351 11.1067 39.4884 11.44 39.4884 11.84C39.4884 12.2933 39.6684 12.6533 40.0284 12.92C40.3884 13.1867 40.8884 13.32 41.5284 13.32C42.1418 13.32 42.6884 13.18 43.1684 12.9C43.6618 12.62 44.0151 12.2067 44.2284 11.66L44.6484 13.16C44.4084 13.7867 43.9751 14.2733 43.3484 14.62C42.7351 14.9667 41.9551 15.14 41.0084 15.14ZM53.4769 15L48.8369 0.999999H51.5369L55.6769 13.66H54.3369L58.6369 0.999999H61.0369L65.2169 13.66H63.9169L68.1569 0.999999H70.6369L65.9969 15H63.2369L59.4169 3.58H60.1369L56.2569 15H53.4769ZM78.2942 15V12.84L78.1542 12.38V8.6C78.1542 7.86667 77.9342 7.3 77.4942 6.9C77.0542 6.48667 76.3876 6.28 75.4942 6.28C74.8942 6.28 74.3009 6.37333 73.7142 6.56C73.1409 6.74667 72.6542 7.00667 72.2542 7.34L71.2742 5.52C71.8476 5.08 72.5276 4.75333 73.3142 4.54C74.1142 4.31333 74.9409 4.2 75.7942 4.2C77.3409 4.2 78.5342 4.57333 79.3742 5.32C80.2276 6.05333 80.6542 7.19333 80.6542 8.74V15H78.2942ZM74.9342 15.14C74.1342 15.14 73.4342 15.0067 72.8342 14.74C72.2342 14.46 71.7676 14.08 71.4342 13.6C71.1142 13.1067 70.9542 12.5533 70.9542 11.94C70.9542 11.34 71.0942 10.8 71.3742 10.32C71.6676 9.84 72.1409 9.46 72.7942 9.18C73.4476 8.9 74.3142 8.76 75.3942 8.76H78.4942V10.42H75.5742C74.7209 10.42 74.1476 10.56 73.8542 10.84C73.5609 11.1067 73.4142 11.44 73.4142 11.84C73.4142 12.2933 73.5942 12.6533 73.9542 12.92C74.3142 13.1867 74.8142 13.32 75.4542 13.32C76.0676 13.32 76.6142 13.18 77.0942 12.9C77.5876 12.62 77.9409 12.2067 78.1542 11.66L78.5742 13.16C78.3342 13.7867 77.9009 14.2733 77.2742 14.62C76.6609 14.9667 75.8809 15.14 74.9342 15.14ZM83.8627 15V4.32H86.2427V7.26L85.9627 6.4C86.2827 5.68 86.7827 5.13333 87.4627 4.76C88.156 4.38667 89.016 4.2 90.0427 4.2V6.58C89.936 6.55333 89.836 6.54 89.7427 6.54C89.6493 6.52667 89.556 6.52 89.4627 6.52C88.516 6.52 87.7627 6.8 87.2027 7.36C86.6427 7.90667 86.3627 8.72667 86.3627 9.82V15H83.8627ZM97.0858 15.14C95.8991 15.14 94.8591 14.9067 93.9658 14.44C93.0858 13.96 92.3991 13.3067 91.9058 12.48C91.4258 11.6533 91.1858 10.7133 91.1858 9.66C91.1858 8.59333 91.4191 7.65333 91.8858 6.84C92.3658 6.01333 93.0191 5.36667 93.8458 4.9C94.6858 4.43333 95.6391 4.2 96.7058 4.2C97.7458 4.2 98.6724 4.42667 99.4858 4.88C100.299 5.33333 100.939 5.97333 101.406 6.8C101.872 7.62667 102.106 8.6 102.106 9.72C102.106 9.82667 102.099 9.94667 102.086 10.08C102.086 10.2133 102.079 10.34 102.066 10.46H93.1658V8.8H100.746L99.7658 9.32C99.7791 8.70667 99.6524 8.16667 99.3858 7.7C99.1191 7.23333 98.7524 6.86667 98.2858 6.6C97.8324 6.33333 97.3058 6.2 96.7058 6.2C96.0924 6.2 95.5524 6.33333 95.0858 6.6C94.6324 6.86667 94.2724 7.24 94.0058 7.72C93.7524 8.18667 93.6258 8.74 93.6258 9.38V9.78C93.6258 10.42 93.7724 10.9867 94.0658 11.48C94.3591 11.9733 94.7724 12.3533 95.3058 12.62C95.8391 12.8867 96.4524 13.02 97.1458 13.02C97.7458 13.02 98.2858 12.9267 98.7658 12.74C99.2458 12.5533 99.6724 12.26 100.046 11.86L101.386 13.4C100.906 13.96 100.299 14.3933 99.5658 14.7C98.8458 14.9933 98.0191 15.14 97.0858 15.14ZM110.567 4.2C111.421 4.2 112.181 4.36667 112.847 4.7C113.527 5.03333 114.061 5.54667 114.447 6.24C114.834 6.92 115.027 7.8 115.027 8.88V15H112.527V9.2C112.527 8.25333 112.301 7.54667 111.847 7.08C111.407 6.61333 110.787 6.38 109.987 6.38C109.401 6.38 108.881 6.5 108.427 6.74C107.974 6.98 107.621 7.34 107.367 7.82C107.127 8.28667 107.007 8.88 107.007 9.6V15H104.507V0.159999H107.007V7.2L106.467 6.32C106.841 5.64 107.381 5.12 108.087 4.76C108.807 4.38667 109.634 4.2 110.567 4.2ZM123.018 15.14C121.925 15.14 120.951 14.9067 120.098 14.44C119.245 13.96 118.571 13.3067 118.078 12.48C117.585 11.6533 117.338 10.7133 117.338 9.66C117.338 8.59333 117.585 7.65333 118.078 6.84C118.571 6.01333 119.245 5.36667 120.098 4.9C120.951 4.43333 121.925 4.2 123.018 4.2C124.125 4.2 125.105 4.43333 125.958 4.9C126.825 5.36667 127.498 6.00667 127.978 6.82C128.471 7.63333 128.718 8.58 128.718 9.66C128.718 10.7133 128.471 11.6533 127.978 12.48C127.498 13.3067 126.825 13.96 125.958 14.44C125.105 14.9067 124.125 15.14 123.018 15.14ZM123.018 13C123.631 13 124.178 12.8667 124.658 12.6C125.138 12.3333 125.511 11.9467 125.778 11.44C126.058 10.9333 126.198 10.34 126.198 9.66C126.198 8.96667 126.058 8.37333 125.778 7.88C125.511 7.37333 125.138 6.98667 124.658 6.72C124.178 6.45333 123.638 6.32 123.038 6.32C122.425 6.32 121.878 6.45333 121.398 6.72C120.931 6.98667 120.558 7.37333 120.278 7.88C119.998 8.37333 119.858 8.96667 119.858 9.66C119.858 10.34 119.998 10.9333 120.278 11.44C120.558 11.9467 120.931 12.3333 121.398 12.6C121.878 12.8667 122.418 13 123.018 13ZM135.629 15.14C134.722 15.14 133.922 14.9733 133.229 14.64C132.535 14.2933 131.995 13.7733 131.609 13.08C131.222 12.3733 131.029 11.4867 131.029 10.42V4.32H133.529V10.08C133.529 11.04 133.742 11.76 134.169 12.24C134.609 12.7067 135.229 12.94 136.029 12.94C136.615 12.94 137.122 12.82 137.549 12.58C137.989 12.34 138.329 11.98 138.569 11.5C138.822 11.02 138.949 10.4267 138.949 9.72V4.32H141.449V15H139.069V12.12L139.489 13C139.129 13.6933 138.602 14.2267 137.909 14.6C137.215 14.96 136.455 15.14 135.629 15.14ZM148.022 15.14C147.129 15.14 146.269 15.0267 145.442 14.8C144.629 14.56 143.982 14.2733 143.502 13.94L144.462 12.04C144.942 12.3467 145.515 12.6 146.182 12.8C146.849 13 147.515 13.1 148.182 13.1C148.969 13.1 149.535 12.9933 149.882 12.78C150.242 12.5667 150.422 12.28 150.422 11.92C150.422 11.6267 150.302 11.4067 150.062 11.26C149.822 11.1 149.509 10.98 149.122 10.9C148.735 10.82 148.302 10.7467 147.822 10.68C147.355 10.6133 146.882 10.5267 146.402 10.42C145.935 10.3 145.509 10.1333 145.122 9.92C144.735 9.69333 144.422 9.39333 144.182 9.02C143.942 8.64667 143.822 8.15333 143.822 7.54C143.822 6.86 144.015 6.27333 144.402 5.78C144.789 5.27333 145.329 4.88667 146.022 4.62C146.729 4.34 147.562 4.2 148.522 4.2C149.242 4.2 149.969 4.28 150.702 4.44C151.435 4.6 152.042 4.82667 152.522 5.12L151.562 7.02C151.055 6.71333 150.542 6.50667 150.022 6.4C149.515 6.28 149.009 6.22 148.502 6.22C147.742 6.22 147.175 6.33333 146.802 6.56C146.442 6.78667 146.262 7.07333 146.262 7.42C146.262 7.74 146.382 7.98 146.622 8.14C146.862 8.3 147.175 8.42667 147.562 8.52C147.949 8.61333 148.375 8.69333 148.842 8.76C149.322 8.81333 149.795 8.9 150.262 9.02C150.729 9.14 151.155 9.30667 151.542 9.52C151.942 9.72 152.262 10.0067 152.502 10.38C152.742 10.7533 152.862 11.24 152.862 11.84C152.862 12.5067 152.662 13.0867 152.262 13.58C151.875 14.0733 151.322 14.46 150.602 14.74C149.882 15.0067 149.022 15.14 148.022 15.14ZM160.035 15.14C158.848 15.14 157.808 14.9067 156.915 14.44C156.035 13.96 155.348 13.3067 154.855 12.48C154.375 11.6533 154.135 10.7133 154.135 9.66C154.135 8.59333 154.368 7.65333 154.835 6.84C155.315 6.01333 155.968 5.36667 156.795 4.9C157.635 4.43333 158.588 4.2 159.655 4.2C160.695 4.2 161.622 4.42667 162.435 4.88C163.248 5.33333 163.888 5.97333 164.355 6.8C164.822 7.62667 165.055 8.6 165.055 9.72C165.055 9.82667 165.048 9.94667 165.035 10.08C165.035 10.2133 165.028 10.34 165.015 10.46H156.115V8.8H163.695L162.715 9.32C162.728 8.70667 162.602 8.16667 162.335 7.7C162.068 7.23333 161.702 6.86667 161.235 6.6C160.782 6.33333 160.255 6.2 159.655 6.2C159.042 6.2 158.502 6.33333 158.035 6.6C157.582 6.86667 157.222 7.24 156.955 7.72C156.702 8.18667 156.575 8.74 156.575 9.38V9.78C156.575 10.42 156.722 10.9867 157.015 11.48C157.308 11.9733 157.722 12.3533 158.255 12.62C158.788 12.8867 159.402 13.02 160.095 13.02C160.695 13.02 161.235 12.9267 161.715 12.74C162.195 12.5533 162.622 12.26 162.995 11.86L164.335 13.4C163.855 13.96 163.248 14.3933 162.515 14.7C161.795 14.9933 160.968 15.14 160.035 15.14Z" fill="#212353"/>
</svg>
