<?xml version="1.0" standalone="no"?>
<!DOCTYPE svg PUBLIC "-//W3C//DTD SVG 20010904//EN"
 "http://www.w3.org/TR/2001/REC-SVG-20010904/DTD/svg10.dtd">
<svg version="1.0" xmlns="http://www.w3.org/2000/svg"
 width="500.000000pt" height="500.000000pt" viewBox="0 0 500.000000 500.000000"
 preserveAspectRatio="xMidYMid meet">
<metadata>
Created by potrace 1.14, written by Peter Selinger 2001-2017
</metadata>
<g transform="translate(0.000000,500.000000) scale(0.100000,-0.100000)"
fill="#000000" stroke="none">
<path d="M40 2549 c0 -2216 2 -2452 16 -2466 13 -13 13 -18 2 -25 -10 -8 -9
-9 4 -5 9 3 19 3 21 -1 2 -4 2 -1 1 6 -2 6 1 12 7 12 6 0 7 5 3 12 -4 7 -3 8
4 4 6 -4 9 -14 6 -24 -4 -12 1 -10 15 7 23 26 27 21 10 -12 l-12 -22 22 20
c15 13 21 15 19 5 -2 -9 6 -14 22 -14 14 0 24 6 23 12 -2 7 2 12 8 12 5 0 7 5
3 12 -4 7 -3 8 4 4 6 -4 9 -13 6 -20 -3 -8 0 -17 7 -22 8 -5 10 -3 4 6 -6 10
-4 12 8 7 9 -3 19 -2 22 3 4 6 11 10 17 10 7 0 7 -4 -1 -13 -8 -10 -7 -14 4
-14 8 0 12 4 9 8 -2 5 6 8 18 7 42 -2 58 2 58 13 0 5 -6 7 -13 3 -6 -4 -8 -3
-4 1 4 5 14 10 22 11 11 2 12 -2 5 -16 -5 -10 -15 -21 -22 -23 -9 -4 -9 -6 -1
-6 6 -1 18 6 27 14 8 8 20 15 26 15 6 0 8 5 4 12 -4 7 -3 8 4 4 6 -4 9 -14 6
-24 -4 -12 1 -10 15 7 23 26 27 21 10 -12 l-12 -22 22 20 c15 13 21 15 19 5
-2 -9 6 -14 22 -14 14 0 24 6 23 12 -2 7 2 12 8 12 5 0 7 5 3 12 -4 7 -3 8 4
4 6 -4 9 -13 6 -20 -3 -8 0 -17 7 -22 8 -5 10 -3 4 6 -6 10 -4 12 8 7 9 -3 19
-2 22 3 4 6 11 10 17 10 7 0 7 -4 -1 -13 -8 -10 -7 -14 4 -14 8 0 12 4 9 8 -2
5 6 8 18 7 42 -2 58 2 58 13 0 5 -6 7 -13 3 -6 -4 -8 -3 -4 1 4 5 14 10 22 11
11 2 12 -2 5 -16 -5 -10 -15 -21 -22 -23 -9 -4 -9 -6 -1 -6 6 -1 18 6 27 14 8
8 20 15 26 15 6 0 8 5 4 12 -4 7 -3 8 4 4 6 -4 9 -14 6 -24 -4 -12 1 -10 15 7
23 26 27 21 10 -12 l-12 -22 22 20 c15 13 21 15 19 5 -2 -9 6 -14 22 -14 14 0
24 6 23 12 -2 7 2 12 8 12 5 0 7 5 3 12 -4 7 -3 8 4 4 6 -4 9 -13 6 -20 -3 -8
0 -17 7 -22 8 -5 10 -3 4 6 -6 10 -4 12 8 7 9 -3 19 -2 22 3 4 6 11 10 17 10
7 0 7 -4 -1 -13 -8 -10 -7 -14 4 -14 8 0 12 4 9 8 -2 5 6 8 18 7 42 -2 58 2
58 13 0 5 -6 7 -12 3 -7 -4 -9 -3 -5 1 4 5 14 10 22 11 11 2 12 -2 5 -16 -5
-10 -15 -21 -22 -23 -9 -4 -9 -6 -1 -6 6 -1 18 6 27 14 8 8 20 15 26 15 6 0 8
5 4 12 -4 7 -3 8 4 4 6 -4 9 -14 6 -24 -4 -12 1 -10 15 7 23 26 27 21 10 -12
l-12 -22 22 20 c15 13 21 15 19 5 -2 -9 6 -14 22 -14 14 0 24 6 23 12 -2 7 2
12 8 12 5 0 7 5 3 12 -4 7 -3 8 4 4 6 -4 9 -13 6 -20 -3 -8 0 -17 7 -22 8 -5
10 -3 4 6 -6 10 -4 12 8 7 9 -3 19 -2 22 3 4 6 11 10 17 10 7 0 7 -4 -1 -13
-8 -10 -7 -14 4 -14 8 0 12 4 9 8 -2 5 6 8 18 7 42 -2 58 2 58 13 0 5 -6 7
-12 3 -7 -4 -9 -3 -5 1 4 5 14 10 22 11 11 2 12 -2 5 -16 -5 -10 -15 -21 -22
-23 -9 -4 -9 -6 -1 -6 6 -1 18 6 27 14 8 8 20 15 26 15 6 0 8 5 4 12 -4 7 -3
8 4 4 6 -4 9 -14 6 -24 -4 -12 1 -10 15 7 23 26 27 21 10 -12 l-12 -22 22 20
c15 13 21 15 19 5 -2 -9 6 -14 22 -14 14 0 24 6 23 12 -2 7 2 12 8 12 5 0 7 5
3 12 -4 7 -3 8 4 4 6 -4 9 -13 6 -20 -3 -8 0 -17 7 -22 8 -5 10 -3 4 6 -6 10
-4 12 8 7 9 -3 19 -2 22 3 4 6 11 10 17 10 7 0 7 -4 -1 -13 -8 -10 -7 -14 4
-14 8 0 12 4 9 8 -2 5 6 8 18 7 42 -2 58 2 58 13 0 5 -6 7 -12 3 -7 -4 -9 -3
-5 1 4 5 14 10 22 11 11 2 12 -2 5 -16 -5 -10 -15 -21 -22 -23 -9 -4 -9 -6 -1
-6 6 -1 18 6 27 14 8 8 20 15 26 15 6 0 8 5 4 12 -4 7 -3 8 4 4 6 -4 9 -14 6
-24 -4 -12 1 -10 15 7 23 26 27 21 10 -12 l-12 -22 22 20 c15 13 21 15 19 5
-2 -9 6 -14 22 -14 14 0 24 6 23 12 -2 7 2 12 8 12 5 0 7 5 3 12 -4 7 -3 8 4
4 6 -4 9 -13 6 -20 -3 -8 0 -17 7 -22 8 -5 10 -3 4 6 -6 10 -4 12 8 7 9 -3 19
-2 22 3 4 6 11 10 17 10 7 0 7 -4 -1 -13 -8 -10 -7 -14 4 -14 8 0 12 4 9 8 -2
5 6 8 18 7 42 -2 58 2 58 13 0 5 -6 7 -12 3 -7 -4 -9 -3 -5 1 4 5 14 10 22 11
11 2 12 -2 5 -16 -5 -10 -15 -21 -22 -23 -9 -4 -9 -6 -1 -6 6 -1 18 6 27 14 8
8 20 15 26 15 6 0 8 5 4 12 -4 7 -3 8 4 4 6 -4 9 -14 6 -24 -4 -12 1 -10 15 7
23 26 27 21 10 -12 l-12 -22 22 20 c15 13 21 15 19 5 -2 -9 6 -14 22 -14 14 0
24 6 23 12 -2 7 2 12 8 12 5 0 7 5 3 12 -4 7 -3 8 4 4 6 -4 9 -13 6 -20 -3 -8
0 -17 7 -22 8 -5 10 -3 4 6 -6 10 -4 12 8 7 9 -3 19 -2 22 3 4 6 11 10 17 10
7 0 7 -4 -1 -13 -8 -10 -7 -14 4 -14 8 0 12 4 9 8 -2 5 6 8 18 7 42 -2 58 2
58 13 0 5 -6 7 -12 3 -7 -4 -9 -3 -5 1 4 5 14 10 22 11 11 2 12 -2 5 -16 -5
-10 -15 -21 -22 -23 -9 -4 -9 -6 -1 -6 6 -1 18 6 27 14 8 8 20 15 26 15 6 0 8
5 4 12 -4 7 -3 8 4 4 6 -4 9 -14 6 -24 -4 -12 1 -10 15 7 23 26 27 21 10 -12
l-12 -22 22 20 c15 13 21 15 19 5 -2 -9 6 -14 22 -14 14 0 24 6 23 12 -2 7 2
12 8 12 5 0 7 5 3 12 -4 7 -3 8 4 4 6 -4 9 -13 6 -20 -3 -8 0 -17 7 -22 8 -5
10 -3 4 6 -6 10 -4 12 8 7 9 -3 19 -2 22 3 4 6 11 10 17 10 7 0 7 -4 -1 -13
-8 -10 -7 -14 4 -14 8 0 12 4 9 8 -2 5 6 8 18 7 42 -2 58 2 58 13 0 5 -6 7
-12 3 -7 -4 -9 -3 -5 1 4 5 14 10 22 11 11 2 12 -2 5 -16 -5 -10 -15 -21 -22
-23 -9 -4 -9 -6 -1 -6 6 -1 18 6 27 14 8 8 20 15 26 15 6 0 8 5 4 12 -4 7 -3
8 4 4 6 -4 9 -14 6 -24 -4 -12 1 -10 15 7 23 26 27 21 10 -12 l-12 -22 22 20
c15 13 21 15 19 5 -2 -9 6 -14 22 -14 14 0 24 6 23 12 -2 7 2 12 8 12 5 0 7 5
3 12 -4 7 -3 8 4 4 6 -4 9 -13 6 -20 -3 -8 0 -17 7 -22 8 -5 10 -3 4 6 -6 10
-4 12 8 7 9 -3 19 -2 22 3 4 6 11 10 17 10 7 0 7 -4 -1 -13 -8 -10 -7 -14 4
-14 8 0 12 4 9 8 -2 5 6 8 18 7 42 -2 58 2 58 13 0 5 -6 7 -12 3 -7 -4 -9 -3
-5 1 4 5 14 10 22 11 11 2 12 -2 5 -16 -5 -10 -15 -21 -22 -23 -9 -4 -9 -6 -1
-6 6 -1 18 6 27 14 8 8 20 15 26 15 6 0 8 5 4 12 -4 7 -3 8 4 4 6 -4 9 -14 6
-24 -4 -12 1 -10 15 7 23 26 27 21 10 -12 l-12 -22 22 20 c15 13 21 15 19 5
-2 -9 6 -14 22 -14 14 0 24 6 23 12 -2 7 2 12 8 12 5 0 7 5 3 12 -4 7 -3 8 4
4 6 -4 9 -13 6 -20 -3 -8 0 -17 7 -22 8 -5 10 -3 4 6 -6 10 -4 12 8 7 9 -3 19
-2 22 3 4 6 11 10 17 10 7 0 7 -4 -1 -13 -8 -10 -7 -14 4 -14 8 0 12 4 9 8 -2
5 6 8 18 7 42 -2 58 2 58 13 0 5 -6 7 -12 3 -7 -4 -9 -3 -5 1 4 5 14 10 22 11
11 2 12 -2 5 -16 -5 -10 -15 -21 -22 -23 -9 -4 -9 -6 -1 -6 6 -1 18 6 27 14 8
8 20 15 26 15 6 0 8 5 4 12 -4 7 -3 8 4 4 6 -4 9 -14 6 -24 -4 -12 1 -10 15 7
23 26 27 21 10 -12 l-12 -22 22 20 c15 13 21 15 19 5 -2 -9 6 -14 22 -14 14 0
24 6 23 12 -2 7 2 12 8 12 5 0 7 5 3 12 -4 7 -3 8 4 4 6 -4 9 -13 6 -20 -3 -8
0 -17 7 -22 8 -5 10 -3 4 6 -6 10 -4 12 8 7 9 -3 19 -2 22 3 4 6 11 10 17 10
7 0 7 -4 -1 -13 -8 -10 -7 -14 4 -14 8 0 12 4 9 8 -2 5 6 8 18 7 42 -2 58 2
58 13 0 5 -6 7 -12 3 -7 -4 -9 -3 -5 1 4 5 14 10 22 11 11 2 12 -2 5 -16 -5
-10 -15 -21 -22 -23 -9 -4 -9 -6 -1 -6 6 -1 18 6 27 14 8 8 20 15 26 15 6 0 8
5 4 12 -4 7 -3 8 4 4 6 -4 9 -14 6 -24 -4 -12 1 -10 15 7 23 26 27 21 10 -12
l-12 -22 22 20 c15 13 21 15 19 5 -2 -9 6 -14 22 -14 14 0 24 6 23 12 -2 7 2
12 8 12 5 0 7 5 3 12 -4 7 -3 8 4 4 6 -4 9 -13 6 -20 -3 -8 0 -17 7 -22 8 -5
10 -3 4 6 -6 10 -4 12 8 7 9 -3 19 -2 22 3 4 6 11 10 17 10 7 0 7 -4 -1 -13
-8 -10 -7 -14 4 -14 8 0 12 4 9 8 -2 5 6 8 18 7 42 -2 58 2 58 13 0 5 -6 7
-12 3 -7 -4 -9 -3 -5 1 4 5 14 10 22 11 11 2 12 -2 5 -16 -5 -10 -15 -21 -22
-23 -9 -4 -9 -6 -1 -6 6 -1 18 6 27 14 8 8 20 15 26 15 6 0 8 5 4 12 -4 7 -3
8 4 4 6 -4 9 -14 6 -24 -4 -12 1 -10 15 7 23 26 27 21 10 -12 l-12 -22 22 20
c15 13 21 15 19 5 -2 -9 6 -14 22 -14 14 0 24 6 23 12 -2 7 2 12 8 12 5 0 7 5
3 12 -4 7 -3 8 4 4 6 -4 9 -13 6 -20 -3 -8 0 -17 7 -22 8 -5 10 -3 4 6 -6 10
-4 12 8 7 9 -3 19 -2 22 3 4 6 11 10 17 10 7 0 7 -4 -1 -13 -8 -10 -7 -14 4
-14 8 0 12 4 9 8 -2 5 6 8 18 7 42 -2 58 2 58 13 0 5 -6 7 -12 3 -7 -4 -9 -3
-5 1 4 5 14 10 22 11 11 2 12 -2 5 -16 -5 -10 -15 -21 -22 -23 -9 -4 -9 -6 -1
-6 6 -1 18 6 27 14 8 8 20 15 26 15 6 0 8 5 4 12 -4 7 -3 8 4 4 6 -4 9 -14 6
-24 -4 -12 1 -10 15 7 23 26 27 21 10 -12 l-12 -22 22 20 c15 13 21 15 19 5
-2 -9 6 -14 22 -14 14 0 24 6 22 12 -1 7 3 12 9 12 5 0 7 5 3 12 -4 7 -3 8 4
4 6 -4 9 -13 6 -20 -3 -8 0 -17 7 -22 8 -5 10 -3 4 6 -6 10 -4 12 8 7 9 -3 19
-2 22 3 4 6 11 10 17 10 7 0 7 -4 -1 -13 -8 -10 -7 -14 4 -14 8 0 12 4 9 8 -2
5 6 8 18 7 42 -2 58 2 58 13 0 5 -6 7 -12 3 -7 -4 -9 -3 -5 1 4 5 14 10 22 11
11 2 12 -2 5 -16 -5 -10 -15 -21 -22 -23 -9 -4 -9 -6 -1 -6 6 -1 18 6 27 14 8
8 20 15 26 15 6 0 8 5 4 12 -4 7 -3 8 4 4 6 -4 9 -14 6 -24 -4 -12 1 -10 15 7
23 26 27 21 10 -12 l-12 -22 22 20 c15 13 21 15 19 5 -2 -9 6 -14 22 -14 14 0
24 6 22 12 -1 7 3 12 9 12 5 0 7 5 3 12 -4 7 -3 8 4 4 6 -4 9 -13 6 -20 -3 -8
0 -17 7 -22 8 -5 10 -3 4 6 -6 10 -4 12 8 7 9 -3 19 -2 22 3 4 6 11 10 17 10
7 0 7 -4 -1 -13 -8 -10 -7 -14 4 -14 8 0 12 4 9 9 -3 4 -1 8 5 8 6 0 8 8 5 18
-5 14 -4 14 4 2 6 -8 9 -17 6 -21 -2 -4 3 -9 11 -13 8 -3 17 -1 20 4 3 6 16 5
31 0 17 -7 23 -7 19 0 -3 6 -1 10 6 10 8 0 9 4 0 13 -8 10 -7 14 3 14 8 0 13
-8 11 -18 -2 -10 3 -20 11 -23 10 -4 12 -2 8 6 -5 8 -1 9 12 4 10 -4 15 -4 12
0 -4 4 -1 16 7 28 13 18 15 335 15 2468 l0 2448 -2460 0 -2460 0 0 -2451z
m143 -2477 c15 -16 15 -18 -3 -18 -10 0 -16 4 -13 9 3 5 -1 13 -8 18 -8 5 -9
9 -3 9 6 0 18 -8 27 -18z m77 8 c0 -5 -5 -10 -11 -10 -5 0 -7 5 -4 10 3 6 8
10 11 10 2 0 4 -4 4 -10z m64 -1 c9 8 13 7 13 -3 0 -17 -30 -14 -33 3 -2 7 0
7 3 1 3 -7 9 -8 17 -1z m179 -7 c15 -16 15 -18 -3 -18 -10 0 -16 4 -13 9 3 5
-1 13 -8 18 -8 5 -9 9 -3 9 6 0 18 -8 27 -18z m77 8 c0 -5 -5 -10 -11 -10 -5
0 -7 5 -4 10 3 6 8 10 11 10 2 0 4 -4 4 -10z m64 -1 c9 8 13 7 13 -3 0 -17
-30 -14 -33 3 -2 7 0 7 3 1 3 -7 9 -8 17 -1z m179 -7 c15 -16 15 -18 -3 -18
-10 0 -16 4 -13 9 3 5 -1 13 -8 18 -8 5 -9 9 -3 9 6 0 18 -8 27 -18z m77 8 c0
-5 -5 -10 -11 -10 -5 0 -7 5 -4 10 3 6 8 10 11 10 2 0 4 -4 4 -10z m64 -1 c9
8 13 7 13 -3 0 -17 -30 -14 -33 3 -2 7 0 7 3 1 3 -7 9 -8 17 -1z m179 -7 c15
-16 15 -18 -3 -18 -10 0 -16 4 -13 9 3 5 -1 13 -8 18 -8 5 -9 9 -3 9 6 0 18
-8 27 -18z m77 8 c0 -5 -5 -10 -11 -10 -5 0 -7 5 -4 10 3 6 8 10 11 10 2 0 4
-4 4 -10z m64 -1 c9 8 13 7 13 -3 0 -17 -30 -14 -33 3 -2 7 0 7 3 1 3 -7 9 -8
17 -1z m179 -7 c15 -16 15 -18 -3 -18 -10 0 -16 4 -13 9 3 5 -1 13 -8 18 -8 5
-9 9 -3 9 6 0 18 -8 27 -18z m77 8 c0 -5 -5 -10 -11 -10 -5 0 -7 5 -4 10 3 6
8 10 11 10 2 0 4 -4 4 -10z m64 -1 c9 8 13 7 13 -3 0 -17 -30 -14 -33 3 -2 7
0 7 3 1 3 -7 9 -8 17 -1z m179 -7 c15 -16 15 -18 -3 -18 -10 0 -16 4 -13 9 3
5 -1 13 -8 18 -8 5 -9 9 -3 9 6 0 18 -8 27 -18z m77 8 c0 -5 -5 -10 -11 -10
-5 0 -7 5 -4 10 3 6 8 10 11 10 2 0 4 -4 4 -10z m64 -1 c9 8 13 7 13 -3 0 -17
-30 -14 -33 3 -2 7 0 7 3 1 3 -7 9 -8 17 -1z m179 -7 c15 -16 15 -18 -3 -18
-10 0 -16 4 -13 9 3 5 -1 13 -8 18 -8 5 -9 9 -3 9 6 0 18 -8 27 -18z m77 8 c0
-5 -5 -10 -11 -10 -5 0 -7 5 -4 10 3 6 8 10 11 10 2 0 4 -4 4 -10z m64 -1 c9
8 13 7 13 -3 0 -17 -30 -14 -33 3 -2 7 0 7 3 1 3 -7 9 -8 17 -1z m179 -7 c15
-16 15 -18 -3 -18 -10 0 -16 4 -13 9 3 5 -1 13 -8 18 -8 5 -9 9 -3 9 6 0 18
-8 27 -18z m77 8 c0 -5 -5 -10 -11 -10 -5 0 -7 5 -4 10 3 6 8 10 11 10 2 0 4
-4 4 -10z m64 -1 c9 8 13 7 13 -3 0 -17 -30 -14 -33 3 -2 7 0 7 3 1 3 -7 9 -8
17 -1z m179 -7 c15 -16 15 -18 -3 -18 -10 0 -16 4 -13 9 3 5 -1 13 -8 18 -8 5
-9 9 -3 9 6 0 18 -8 27 -18z m77 8 c0 -5 -5 -10 -11 -10 -5 0 -7 5 -4 10 3 6
8 10 11 10 2 0 4 -4 4 -10z m64 -1 c9 8 13 7 13 -3 0 -17 -30 -14 -33 3 -2 7
0 7 3 1 3 -7 9 -8 17 -1z m179 -7 c15 -16 15 -18 -3 -18 -10 0 -16 4 -13 9 3
5 -1 13 -8 18 -8 5 -9 9 -3 9 6 0 18 -8 27 -18z m77 8 c0 -5 -5 -10 -11 -10
-5 0 -7 5 -4 10 3 6 8 10 11 10 2 0 4 -4 4 -10z m64 -1 c9 8 13 7 13 -3 0 -17
-30 -14 -33 3 -2 7 0 7 3 1 3 -7 9 -8 17 -1z m179 -7 c15 -16 15 -18 -3 -18
-10 0 -16 4 -13 9 3 5 -1 13 -8 18 -8 5 -9 9 -3 9 6 0 18 -8 27 -18z m77 8 c0
-5 -5 -10 -11 -10 -5 0 -7 5 -4 10 3 6 8 10 11 10 2 0 4 -4 4 -10z m64 -1 c9
8 13 7 13 -3 0 -17 -30 -14 -33 3 -2 7 0 7 3 1 3 -7 9 -8 17 -1z m179 -7 c15
-16 15 -18 -3 -18 -10 0 -16 4 -13 9 3 5 -1 13 -8 18 -8 5 -9 9 -3 9 6 0 18
-8 27 -18z m77 8 c0 -5 -5 -10 -11 -10 -5 0 -7 5 -4 10 3 6 8 10 11 10 2 0 4
-4 4 -10z m64 -1 c9 8 13 7 13 -3 0 -17 -30 -14 -33 3 -2 7 0 7 3 1 3 -7 9 -8
17 -1z m179 -7 c15 -16 15 -18 -3 -18 -10 0 -16 4 -13 9 3 5 -1 13 -8 18 -8 5
-9 9 -3 9 6 0 18 -8 27 -18z m77 8 c0 -5 -5 -10 -11 -10 -5 0 -7 5 -4 10 3 6
8 10 11 10 2 0 4 -4 4 -10z m64 -1 c9 8 13 7 13 -3 0 -17 -30 -14 -33 3 -2 7
0 7 3 1 3 -7 9 -8 17 -1z m179 -7 c15 -16 15 -18 -3 -18 -10 0 -16 4 -13 9 3
5 -1 13 -8 18 -8 5 -9 9 -3 9 6 0 18 -8 27 -18z m77 8 c0 -5 -5 -10 -11 -10
-5 0 -7 5 -4 10 3 6 8 10 11 10 2 0 4 -4 4 -10z m64 -1 c9 8 13 7 13 -3 0 -17
-30 -14 -33 3 -2 7 0 7 3 1 3 -7 9 -8 17 -1z m179 -7 c15 -16 15 -18 -3 -18
-10 0 -16 4 -13 9 3 5 -1 13 -8 18 -8 5 -9 9 -3 9 6 0 18 -8 27 -18z m77 8 c0
-5 -5 -10 -11 -10 -5 0 -7 5 -4 10 3 6 8 10 11 10 2 0 4 -4 4 -10z m86 -16
c-4 -9 -9 -15 -11 -12 -3 3 -3 13 1 22 4 9 9 15 11 12 3 -3 3 -13 -1 -22z m29
16 c-3 -5 -1 -10 6 -10 7 0 10 -3 6 -6 -9 -9 -28 6 -22 17 4 5 8 9 11 9 3 0 2
-4 -1 -10z m80 0 c-3 -5 -12 -10 -18 -10 -7 0 -6 4 3 10 19 12 23 12 15 0z"/>
</g>
</svg>
